<mxfile host="app.diagrams.net" agent="Mozilla/5.0 (X11; Linux x86_64) AppleWebKit/537.36 (KHTML, like Gecko) Chrome/140.0.0.0 Safari/537.36" version="28.2.5">
  <diagram name="Страница — 1" id="okFXUPqk4nbL5_hFfTfc">
    <mxGraphModel dx="1366" dy="1933" grid="1" gridSize="10" guides="1" tooltips="1" connect="1" arrows="1" fold="1" page="1" pageScale="1" pageWidth="827" pageHeight="1169" math="0" shadow="0">
      <root>
        <mxCell id="0" />
        <mxCell id="1" parent="0" />
        <mxCell id="7Vq4tPNCKl___RxEntrl-2" style="edgeStyle=orthogonalEdgeStyle;rounded=0;orthogonalLoop=1;jettySize=auto;html=1;entryX=0;entryY=0.5;entryDx=0;entryDy=0;" parent="1" source="3YACs0A56gdcVSt9lbPw-1" target="3YACs0A56gdcVSt9lbPw-26" edge="1">
          <mxGeometry relative="1" as="geometry">
            <Array as="points">
              <mxPoint x="90" y="190" />
              <mxPoint x="90" y="270" />
            </Array>
          </mxGeometry>
        </mxCell>
        <mxCell id="7Vq4tPNCKl___RxEntrl-5" style="edgeStyle=orthogonalEdgeStyle;rounded=0;orthogonalLoop=1;jettySize=auto;html=1;entryX=0;entryY=0.5;entryDx=0;entryDy=0;" parent="1" source="3YACs0A56gdcVSt9lbPw-1" target="3YACs0A56gdcVSt9lbPw-28" edge="1">
          <mxGeometry relative="1" as="geometry">
            <Array as="points">
              <mxPoint x="90" y="190" />
              <mxPoint x="90" y="440" />
            </Array>
          </mxGeometry>
        </mxCell>
        <mxCell id="7Vq4tPNCKl___RxEntrl-6" style="edgeStyle=orthogonalEdgeStyle;rounded=0;orthogonalLoop=1;jettySize=auto;html=1;entryX=0;entryY=0.5;entryDx=0;entryDy=0;" parent="1" source="3YACs0A56gdcVSt9lbPw-1" target="3YACs0A56gdcVSt9lbPw-29" edge="1">
          <mxGeometry relative="1" as="geometry">
            <Array as="points">
              <mxPoint x="90" y="190" />
              <mxPoint x="90" y="530" />
            </Array>
          </mxGeometry>
        </mxCell>
        <mxCell id="7Vq4tPNCKl___RxEntrl-7" style="edgeStyle=orthogonalEdgeStyle;rounded=0;orthogonalLoop=1;jettySize=auto;html=1;entryX=0;entryY=0.5;entryDx=0;entryDy=0;" parent="1" source="3YACs0A56gdcVSt9lbPw-1" target="7Vq4tPNCKl___RxEntrl-1" edge="1">
          <mxGeometry relative="1" as="geometry">
            <Array as="points">
              <mxPoint x="90" y="190" />
              <mxPoint x="90" y="620" />
            </Array>
          </mxGeometry>
        </mxCell>
        <mxCell id="3YACs0A56gdcVSt9lbPw-1" value="&lt;b&gt;User Service&lt;/b&gt; (регистрация, авторизация, профиль)" style="rounded=0;whiteSpace=wrap;html=1;fillColor=#e1d5e7;strokeColor=#9673a6;" parent="1" vertex="1">
          <mxGeometry x="110" y="160" width="130" height="60" as="geometry" />
        </mxCell>
        <mxCell id="7Vq4tPNCKl___RxEntrl-15" style="edgeStyle=orthogonalEdgeStyle;rounded=0;orthogonalLoop=1;jettySize=auto;html=1;entryX=1;entryY=0.5;entryDx=0;entryDy=0;" parent="1" source="3YACs0A56gdcVSt9lbPw-2" target="7Vq4tPNCKl___RxEntrl-11" edge="1">
          <mxGeometry relative="1" as="geometry">
            <Array as="points">
              <mxPoint x="740" y="190" />
              <mxPoint x="740" y="280" />
            </Array>
          </mxGeometry>
        </mxCell>
        <mxCell id="7Vq4tPNCKl___RxEntrl-16" style="edgeStyle=orthogonalEdgeStyle;rounded=0;orthogonalLoop=1;jettySize=auto;html=1;entryX=1;entryY=0.5;entryDx=0;entryDy=0;" parent="1" source="3YACs0A56gdcVSt9lbPw-2" target="7Vq4tPNCKl___RxEntrl-10" edge="1">
          <mxGeometry relative="1" as="geometry">
            <Array as="points">
              <mxPoint x="740" y="190" />
              <mxPoint x="740" y="370" />
            </Array>
          </mxGeometry>
        </mxCell>
        <mxCell id="7Vq4tPNCKl___RxEntrl-17" style="edgeStyle=orthogonalEdgeStyle;rounded=0;orthogonalLoop=1;jettySize=auto;html=1;entryX=1;entryY=0.5;entryDx=0;entryDy=0;" parent="1" source="3YACs0A56gdcVSt9lbPw-2" target="7Vq4tPNCKl___RxEntrl-9" edge="1">
          <mxGeometry relative="1" as="geometry">
            <Array as="points">
              <mxPoint x="740" y="190" />
              <mxPoint x="740" y="455" />
            </Array>
          </mxGeometry>
        </mxCell>
        <mxCell id="7Vq4tPNCKl___RxEntrl-18" style="edgeStyle=orthogonalEdgeStyle;rounded=0;orthogonalLoop=1;jettySize=auto;html=1;entryX=1;entryY=0.5;entryDx=0;entryDy=0;" parent="1" source="3YACs0A56gdcVSt9lbPw-2" target="7Vq4tPNCKl___RxEntrl-14" edge="1">
          <mxGeometry relative="1" as="geometry">
            <Array as="points">
              <mxPoint x="740" y="190" />
              <mxPoint x="740" y="550" />
            </Array>
          </mxGeometry>
        </mxCell>
        <mxCell id="7Vq4tPNCKl___RxEntrl-19" style="edgeStyle=orthogonalEdgeStyle;rounded=0;orthogonalLoop=1;jettySize=auto;html=1;entryX=1;entryY=0.5;entryDx=0;entryDy=0;" parent="1" source="3YACs0A56gdcVSt9lbPw-2" target="7Vq4tPNCKl___RxEntrl-13" edge="1">
          <mxGeometry relative="1" as="geometry">
            <Array as="points">
              <mxPoint x="740" y="190" />
              <mxPoint x="740" y="640" />
            </Array>
          </mxGeometry>
        </mxCell>
        <mxCell id="7Vq4tPNCKl___RxEntrl-20" style="edgeStyle=orthogonalEdgeStyle;rounded=0;orthogonalLoop=1;jettySize=auto;html=1;entryX=1;entryY=0.5;entryDx=0;entryDy=0;" parent="1" source="3YACs0A56gdcVSt9lbPw-2" target="7Vq4tPNCKl___RxEntrl-12" edge="1">
          <mxGeometry relative="1" as="geometry">
            <Array as="points">
              <mxPoint x="740" y="190" />
              <mxPoint x="740" y="730" />
            </Array>
          </mxGeometry>
        </mxCell>
        <mxCell id="3YACs0A56gdcVSt9lbPw-2" value="&lt;b&gt;Product Service&lt;/b&gt; (каталог, категории, фильтрация)" style="rounded=0;whiteSpace=wrap;html=1;fillColor=#e1d5e7;strokeColor=#9673a6;" parent="1" vertex="1">
          <mxGeometry x="600" y="160" width="120" height="60" as="geometry" />
        </mxCell>
        <mxCell id="7Vq4tPNCKl___RxEntrl-29" style="edgeStyle=orthogonalEdgeStyle;rounded=0;orthogonalLoop=1;jettySize=auto;html=1;entryX=1;entryY=0.5;entryDx=0;entryDy=0;" parent="1" source="3YACs0A56gdcVSt9lbPw-3" target="7Vq4tPNCKl___RxEntrl-24" edge="1">
          <mxGeometry relative="1" as="geometry">
            <Array as="points">
              <mxPoint x="500" y="270" />
              <mxPoint x="500" y="350" />
            </Array>
          </mxGeometry>
        </mxCell>
        <mxCell id="7Vq4tPNCKl___RxEntrl-30" style="edgeStyle=orthogonalEdgeStyle;rounded=0;orthogonalLoop=1;jettySize=auto;html=1;entryX=1;entryY=0.5;entryDx=0;entryDy=0;" parent="1" source="3YACs0A56gdcVSt9lbPw-3" target="7Vq4tPNCKl___RxEntrl-23" edge="1">
          <mxGeometry relative="1" as="geometry">
            <Array as="points">
              <mxPoint x="500" y="270" />
              <mxPoint x="500" y="430" />
            </Array>
          </mxGeometry>
        </mxCell>
        <mxCell id="7Vq4tPNCKl___RxEntrl-31" style="edgeStyle=orthogonalEdgeStyle;rounded=0;orthogonalLoop=1;jettySize=auto;html=1;entryX=1;entryY=0.5;entryDx=0;entryDy=0;" parent="1" source="3YACs0A56gdcVSt9lbPw-3" target="7Vq4tPNCKl___RxEntrl-22" edge="1">
          <mxGeometry relative="1" as="geometry">
            <Array as="points">
              <mxPoint x="500" y="270" />
              <mxPoint x="500" y="510" />
            </Array>
          </mxGeometry>
        </mxCell>
        <mxCell id="7Vq4tPNCKl___RxEntrl-33" style="edgeStyle=orthogonalEdgeStyle;rounded=0;orthogonalLoop=1;jettySize=auto;html=1;entryX=1;entryY=0.5;entryDx=0;entryDy=0;" parent="1" source="3YACs0A56gdcVSt9lbPw-3" target="7Vq4tPNCKl___RxEntrl-26" edge="1">
          <mxGeometry relative="1" as="geometry">
            <Array as="points">
              <mxPoint x="500" y="270" />
              <mxPoint x="500" y="670" />
            </Array>
          </mxGeometry>
        </mxCell>
        <mxCell id="7Vq4tPNCKl___RxEntrl-34" style="edgeStyle=orthogonalEdgeStyle;rounded=0;orthogonalLoop=1;jettySize=auto;html=1;entryX=1;entryY=0.5;entryDx=0;entryDy=0;" parent="1" source="3YACs0A56gdcVSt9lbPw-3" target="7Vq4tPNCKl___RxEntrl-25" edge="1">
          <mxGeometry relative="1" as="geometry">
            <Array as="points">
              <mxPoint x="500" y="270" />
              <mxPoint x="500" y="750" />
            </Array>
          </mxGeometry>
        </mxCell>
        <mxCell id="7Vq4tPNCKl___RxEntrl-38" style="edgeStyle=orthogonalEdgeStyle;rounded=0;orthogonalLoop=1;jettySize=auto;html=1;fillColor=#f8cecc;strokeColor=#b85450;" parent="1" source="3YACs0A56gdcVSt9lbPw-3" edge="1">
          <mxGeometry relative="1" as="geometry">
            <mxPoint x="240" y="210" as="targetPoint" />
            <Array as="points">
              <mxPoint x="270" y="270" />
              <mxPoint x="270" y="210" />
            </Array>
          </mxGeometry>
        </mxCell>
        <mxCell id="7Vq4tPNCKl___RxEntrl-39" value="Токен &lt;br&gt;пользователя" style="edgeLabel;html=1;align=center;verticalAlign=middle;resizable=0;points=[];fontColor=#FF6666;fontSize=8;" parent="7Vq4tPNCKl___RxEntrl-38" connectable="0" vertex="1">
          <mxGeometry x="-0.3603" y="-1" relative="1" as="geometry">
            <mxPoint x="8" y="-16" as="offset" />
          </mxGeometry>
        </mxCell>
        <mxCell id="7Vq4tPNCKl___RxEntrl-40" style="edgeStyle=orthogonalEdgeStyle;rounded=0;orthogonalLoop=1;jettySize=auto;html=1;exitX=1;exitY=0.25;exitDx=0;exitDy=0;entryX=0;entryY=0.75;entryDx=0;entryDy=0;fillColor=#f8cecc;strokeColor=#b85450;" parent="1" source="3YACs0A56gdcVSt9lbPw-3" target="3YACs0A56gdcVSt9lbPw-2" edge="1">
          <mxGeometry relative="1" as="geometry">
            <Array as="points">
              <mxPoint x="580" y="255" />
              <mxPoint x="580" y="205" />
            </Array>
          </mxGeometry>
        </mxCell>
        <mxCell id="7Vq4tPNCKl___RxEntrl-41" value="Актуальные цены, &lt;br&gt;наличие товара, &lt;br&gt;резервирует количество" style="edgeLabel;html=1;align=center;verticalAlign=middle;resizable=0;points=[];fontSize=8;fontColor=#FF6666;" parent="7Vq4tPNCKl___RxEntrl-40" connectable="0" vertex="1">
          <mxGeometry x="-0.3916" y="-2" relative="1" as="geometry">
            <mxPoint x="-2" y="-23" as="offset" />
          </mxGeometry>
        </mxCell>
        <mxCell id="3YACs0A56gdcVSt9lbPw-3" value="&lt;b&gt;Order Service&lt;/b&gt; (создание заказа, оплата, статус)" style="rounded=0;whiteSpace=wrap;html=1;fillColor=#e1d5e7;strokeColor=#9673a6;" parent="1" vertex="1">
          <mxGeometry x="360" y="240" width="120" height="60" as="geometry" />
        </mxCell>
        <mxCell id="3YACs0A56gdcVSt9lbPw-4" value="&lt;b&gt;Notification Service&lt;/b&gt; (отправка email, смс)" style="rounded=0;whiteSpace=wrap;html=1;fillColor=#dae8fc;strokeColor=#6c8ebf;" parent="1" vertex="1">
          <mxGeometry x="440" y="40" width="120" height="60" as="geometry" />
        </mxCell>
        <mxCell id="3YACs0A56gdcVSt9lbPw-5" value="&lt;b&gt;Pay&lt;/b&gt;&lt;span style=&quot;background-color: transparent; color: light-dark(rgb(0, 0, 0), rgb(255, 255, 255));&quot;&gt;&lt;b&gt;ment Service&lt;/b&gt; (интеграция &lt;br&gt;с платёжными системами)&lt;/span&gt;" style="rounded=0;whiteSpace=wrap;html=1;fillColor=#dae8fc;strokeColor=#6c8ebf;" parent="1" vertex="1">
          <mxGeometry x="280" y="40" width="120" height="60" as="geometry" />
        </mxCell>
        <mxCell id="3YACs0A56gdcVSt9lbPw-6" value="&lt;b&gt;Cart Service&lt;/b&gt; (корзина)" style="rounded=0;whiteSpace=wrap;html=1;fillColor=#dae8fc;strokeColor=#6c8ebf;" parent="1" vertex="1">
          <mxGeometry x="120" y="40" width="120" height="60" as="geometry" />
        </mxCell>
        <mxCell id="3YACs0A56gdcVSt9lbPw-7" value="&lt;b&gt;Review&lt;/b&gt;&lt;span style=&quot;background-color: transparent; color: light-dark(rgb(0, 0, 0), rgb(255, 255, 255));&quot;&gt;&lt;b&gt;&amp;nbsp;Service&lt;/b&gt; (отзывы, рейтинги)&lt;/span&gt;" style="rounded=0;whiteSpace=wrap;html=1;fillColor=#dae8fc;strokeColor=#6c8ebf;" parent="1" vertex="1">
          <mxGeometry x="600" y="40" width="120" height="60" as="geometry" />
        </mxCell>
        <mxCell id="3YACs0A56gdcVSt9lbPw-9" style="edgeStyle=orthogonalEdgeStyle;rounded=0;orthogonalLoop=1;jettySize=auto;html=1;exitX=0.317;exitY=0.033;exitDx=0;exitDy=0;exitPerimeter=0;" parent="1" source="3YACs0A56gdcVSt9lbPw-8" target="3YACs0A56gdcVSt9lbPw-5" edge="1">
          <mxGeometry relative="1" as="geometry">
            <mxPoint x="410" y="170" as="sourcePoint" />
          </mxGeometry>
        </mxCell>
        <mxCell id="3YACs0A56gdcVSt9lbPw-10" style="edgeStyle=orthogonalEdgeStyle;rounded=0;orthogonalLoop=1;jettySize=auto;html=1;exitX=0.75;exitY=0;exitDx=0;exitDy=0;" parent="1" source="3YACs0A56gdcVSt9lbPw-8" target="3YACs0A56gdcVSt9lbPw-4" edge="1">
          <mxGeometry relative="1" as="geometry" />
        </mxCell>
        <mxCell id="3YACs0A56gdcVSt9lbPw-11" style="edgeStyle=orthogonalEdgeStyle;rounded=0;orthogonalLoop=1;jettySize=auto;html=1;exitX=1;exitY=0;exitDx=0;exitDy=0;entryX=0.5;entryY=1;entryDx=0;entryDy=0;" parent="1" source="3YACs0A56gdcVSt9lbPw-8" target="3YACs0A56gdcVSt9lbPw-7" edge="1">
          <mxGeometry relative="1" as="geometry">
            <Array as="points">
              <mxPoint x="520" y="160" />
              <mxPoint x="520" y="130" />
              <mxPoint x="660" y="130" />
            </Array>
          </mxGeometry>
        </mxCell>
        <mxCell id="3YACs0A56gdcVSt9lbPw-12" style="edgeStyle=orthogonalEdgeStyle;rounded=0;orthogonalLoop=1;jettySize=auto;html=1;exitX=0;exitY=0;exitDx=0;exitDy=0;" parent="1" source="3YACs0A56gdcVSt9lbPw-8" target="3YACs0A56gdcVSt9lbPw-6" edge="1">
          <mxGeometry relative="1" as="geometry">
            <Array as="points">
              <mxPoint x="320" y="160" />
              <mxPoint x="320" y="130" />
              <mxPoint x="180" y="130" />
            </Array>
          </mxGeometry>
        </mxCell>
        <mxCell id="3YACs0A56gdcVSt9lbPw-13" style="edgeStyle=orthogonalEdgeStyle;rounded=0;orthogonalLoop=1;jettySize=auto;html=1;entryX=1;entryY=0.5;entryDx=0;entryDy=0;" parent="1" source="3YACs0A56gdcVSt9lbPw-8" target="3YACs0A56gdcVSt9lbPw-1" edge="1">
          <mxGeometry relative="1" as="geometry" />
        </mxCell>
        <mxCell id="3YACs0A56gdcVSt9lbPw-14" style="edgeStyle=orthogonalEdgeStyle;rounded=0;orthogonalLoop=1;jettySize=auto;html=1;" parent="1" source="3YACs0A56gdcVSt9lbPw-8" edge="1">
          <mxGeometry relative="1" as="geometry">
            <mxPoint x="420" y="240" as="targetPoint" />
          </mxGeometry>
        </mxCell>
        <mxCell id="3YACs0A56gdcVSt9lbPw-15" style="edgeStyle=orthogonalEdgeStyle;rounded=0;orthogonalLoop=1;jettySize=auto;html=1;entryX=0;entryY=0.5;entryDx=0;entryDy=0;" parent="1" source="3YACs0A56gdcVSt9lbPw-8" target="3YACs0A56gdcVSt9lbPw-2" edge="1">
          <mxGeometry relative="1" as="geometry" />
        </mxCell>
        <mxCell id="3YACs0A56gdcVSt9lbPw-8" value="Use Cases" style="rounded=0;whiteSpace=wrap;html=1;fillColor=#76608a;fontColor=#ffffff;strokeColor=#432D57;" parent="1" vertex="1">
          <mxGeometry x="360" y="160" width="120" height="60" as="geometry" />
        </mxCell>
        <mxCell id="3YACs0A56gdcVSt9lbPw-22" value="&lt;b&gt;Гость&lt;/b&gt; - неавторизованный пользователь" style="rounded=0;whiteSpace=wrap;html=1;fillColor=#fff2cc;strokeColor=#d6b656;" parent="1" vertex="1">
          <mxGeometry x="200" y="1080" width="120" height="60" as="geometry" />
        </mxCell>
        <mxCell id="3YACs0A56gdcVSt9lbPw-23" value="Расширение" style="rounded=0;whiteSpace=wrap;html=1;fillColor=#dae8fc;strokeColor=#6c8ebf;" parent="1" vertex="1">
          <mxGeometry x="680" y="1080" width="120" height="60" as="geometry" />
        </mxCell>
        <mxCell id="3YACs0A56gdcVSt9lbPw-24" value="&lt;b&gt;Администратор&lt;/b&gt; - пользователь &lt;br&gt;с правами администратора" style="rounded=0;whiteSpace=wrap;html=1;fillColor=#f8cecc;strokeColor=#b85450;" parent="1" vertex="1">
          <mxGeometry x="520" y="1080" width="120" height="60" as="geometry" />
        </mxCell>
        <mxCell id="3YACs0A56gdcVSt9lbPw-25" value="&lt;b&gt;Покупатель&lt;/b&gt; - авторизованный пользователь" style="rounded=0;whiteSpace=wrap;html=1;fillColor=#d5e8d4;strokeColor=#82b366;" parent="1" vertex="1">
          <mxGeometry x="360" y="1080" width="120" height="60" as="geometry" />
        </mxCell>
        <mxCell id="3YACs0A56gdcVSt9lbPw-26" value="&lt;b&gt;Зарегистрироваться&lt;/b&gt; - создаёт аккаунт, указывая email и пароль" style="rounded=0;whiteSpace=wrap;html=1;fillColor=#fff2cc;strokeColor=#d6b656;" parent="1" vertex="1">
          <mxGeometry x="110" y="240" width="130" height="60" as="geometry" />
        </mxCell>
        <mxCell id="3YACs0A56gdcVSt9lbPw-27" value="&lt;b&gt;Войти в систему&lt;/b&gt;- авторизуется по email и паролю" style="rounded=0;whiteSpace=wrap;html=1;fillColor=#fff2cc;strokeColor=#d6b656;" parent="1" vertex="1">
          <mxGeometry x="110" y="320" width="130" height="60" as="geometry" />
        </mxCell>
        <mxCell id="3YACs0A56gdcVSt9lbPw-28" value="&lt;b&gt;Просмотреть/редактировать профиль&lt;/b&gt; - изменяет личные данные (ФИО, адрес, телефон)&amp;nbsp;" style="rounded=0;whiteSpace=wrap;html=1;fillColor=#d5e8d4;strokeColor=#82b366;" parent="1" vertex="1">
          <mxGeometry x="110" y="400" width="130" height="80" as="geometry" />
        </mxCell>
        <mxCell id="3YACs0A56gdcVSt9lbPw-29" value="&lt;b&gt;Выйти из системы&lt;/b&gt; - завершает сессию" style="rounded=0;whiteSpace=wrap;html=1;fillColor=#d5e8d4;strokeColor=#82b366;" parent="1" vertex="1">
          <mxGeometry x="110" y="500" width="130" height="60" as="geometry" />
        </mxCell>
        <mxCell id="7Vq4tPNCKl___RxEntrl-1" value="&lt;b&gt;Управлять пользователями&lt;/b&gt;&amp;nbsp;- блокировать\&lt;div&gt;разблокировать, назначать роли&lt;/div&gt;" style="rounded=0;whiteSpace=wrap;html=1;fillColor=#f8cecc;strokeColor=#b85450;" parent="1" vertex="1">
          <mxGeometry x="110" y="580" width="130" height="80" as="geometry" />
        </mxCell>
        <mxCell id="7Vq4tPNCKl___RxEntrl-4" style="edgeStyle=orthogonalEdgeStyle;rounded=0;orthogonalLoop=1;jettySize=auto;html=1;entryX=0;entryY=0.5;entryDx=0;entryDy=0;" parent="1" source="3YACs0A56gdcVSt9lbPw-1" target="3YACs0A56gdcVSt9lbPw-27" edge="1">
          <mxGeometry relative="1" as="geometry">
            <Array as="points">
              <mxPoint x="90" y="190" />
              <mxPoint x="90" y="350" />
            </Array>
          </mxGeometry>
        </mxCell>
        <mxCell id="7Vq4tPNCKl___RxEntrl-8" value="&lt;b&gt;Гость\Покупатель&lt;/b&gt;" style="rounded=0;whiteSpace=wrap;html=1;fillColor=#ffe6cc;strokeColor=#d79b00;" parent="1" vertex="1">
          <mxGeometry x="40" y="1080" width="120" height="60" as="geometry" />
        </mxCell>
        <mxCell id="7Vq4tPNCKl___RxEntrl-9" value="&lt;b&gt;Просмотреть детали товара - &lt;/b&gt;получает полную информацию &lt;br&gt;о товаре" style="rounded=0;whiteSpace=wrap;html=1;fillColor=#ffe6cc;strokeColor=#d79b00;" parent="1" vertex="1">
          <mxGeometry x="600" y="420" width="120" height="70" as="geometry" />
        </mxCell>
        <mxCell id="7Vq4tPNCKl___RxEntrl-10" value="&lt;b&gt;Фильтровать товары -&lt;/b&gt; &lt;br&gt;по категории, бренду, цене и т.д." style="rounded=0;whiteSpace=wrap;html=1;fillColor=#ffe6cc;strokeColor=#d79b00;" parent="1" vertex="1">
          <mxGeometry x="600" y="340" width="120" height="60" as="geometry" />
        </mxCell>
        <mxCell id="7Vq4tPNCKl___RxEntrl-11" value="&lt;b&gt;Просмотреть каталог товара- &lt;/b&gt;получает список товаров &lt;br&gt;с пагинацией" style="rounded=0;whiteSpace=wrap;html=1;fillColor=#ffe6cc;strokeColor=#d79b00;" parent="1" vertex="1">
          <mxGeometry x="600" y="240" width="120" height="80" as="geometry" />
        </mxCell>
        <mxCell id="7Vq4tPNCKl___RxEntrl-12" value="&lt;b&gt;Управлять остатками&lt;/b&gt;&amp;nbsp;- обновляет количество товара на складе" style="rounded=0;whiteSpace=wrap;html=1;fillColor=#f8cecc;strokeColor=#b85450;" parent="1" vertex="1">
          <mxGeometry x="600" y="690" width="120" height="80" as="geometry" />
        </mxCell>
        <mxCell id="7Vq4tPNCKl___RxEntrl-13" value="&lt;b&gt;Управлять категориями&lt;/b&gt;&amp;nbsp;- добавляет\удаляе категории" style="rounded=0;whiteSpace=wrap;html=1;fillColor=#f8cecc;strokeColor=#b85450;" parent="1" vertex="1">
          <mxGeometry x="600" y="610" width="120" height="60" as="geometry" />
        </mxCell>
        <mxCell id="7Vq4tPNCKl___RxEntrl-14" value="&lt;b&gt;Добавить\&lt;br&gt;редактировать товар&lt;/b&gt; - создаёт или обновляет карточку товара" style="rounded=0;whiteSpace=wrap;html=1;fillColor=#f8cecc;strokeColor=#b85450;" parent="1" vertex="1">
          <mxGeometry x="600" y="510" width="120" height="80" as="geometry" />
        </mxCell>
        <mxCell id="7Vq4tPNCKl___RxEntrl-21" value="&lt;b&gt;Отменить заказ&lt;/b&gt; - отменяет заказ, &lt;br&gt;если он ещё &lt;br&gt;не обработан" style="rounded=0;whiteSpace=wrap;html=1;fillColor=#d5e8d4;strokeColor=#82b366;" parent="1" vertex="1">
          <mxGeometry x="360" y="560" width="120" height="60" as="geometry" />
        </mxCell>
        <mxCell id="7Vq4tPNCKl___RxEntrl-22" value="&lt;b&gt;Просмотреть свои заказы&lt;/b&gt; - получает список своих заказов с деалями" style="rounded=0;whiteSpace=wrap;html=1;fillColor=#d5e8d4;strokeColor=#82b366;" parent="1" vertex="1">
          <mxGeometry x="360" y="480" width="120" height="60" as="geometry" />
        </mxCell>
        <mxCell id="7Vq4tPNCKl___RxEntrl-23" value="&lt;b&gt;Оформить заказ&lt;/b&gt; - создаёт заказ на основе выбранных товаров" style="rounded=0;whiteSpace=wrap;html=1;fillColor=#d5e8d4;strokeColor=#82b366;" parent="1" vertex="1">
          <mxGeometry x="360" y="400" width="120" height="60" as="geometry" />
        </mxCell>
        <mxCell id="7Vq4tPNCKl___RxEntrl-24" value="&lt;b&gt;Добавить товар &lt;br&gt;в корзину&lt;/b&gt;" style="rounded=0;whiteSpace=wrap;html=1;fillColor=#d5e8d4;strokeColor=#82b366;" parent="1" vertex="1">
          <mxGeometry x="360" y="320" width="120" height="60" as="geometry" />
        </mxCell>
        <mxCell id="7Vq4tPNCKl___RxEntrl-25" value="&lt;b&gt;Изменить статус заказа&lt;/b&gt; - например,&lt;br&gt;&quot;в обработке&quot; - &quot;отправлен&quot;" style="rounded=0;whiteSpace=wrap;html=1;fillColor=#f8cecc;strokeColor=#b85450;" parent="1" vertex="1">
          <mxGeometry x="360" y="720" width="120" height="60" as="geometry" />
        </mxCell>
        <mxCell id="7Vq4tPNCKl___RxEntrl-26" value="&lt;b&gt;Просмотреть все заказы&lt;/b&gt; - получает список всех заказов" style="rounded=0;whiteSpace=wrap;html=1;fillColor=#f8cecc;strokeColor=#b85450;" parent="1" vertex="1">
          <mxGeometry x="360" y="640" width="120" height="60" as="geometry" />
        </mxCell>
        <mxCell id="7Vq4tPNCKl___RxEntrl-32" style="edgeStyle=orthogonalEdgeStyle;rounded=0;orthogonalLoop=1;jettySize=auto;html=1;entryX=1;entryY=0.5;entryDx=0;entryDy=0;" parent="1" source="3YACs0A56gdcVSt9lbPw-3" target="7Vq4tPNCKl___RxEntrl-21" edge="1">
          <mxGeometry relative="1" as="geometry">
            <Array as="points">
              <mxPoint x="500" y="270" />
              <mxPoint x="500" y="590" />
            </Array>
          </mxGeometry>
        </mxCell>
        <mxCell id="7Vq4tPNCKl___RxEntrl-37" value="" style="endArrow=none;html=1;rounded=0;" parent="1" edge="1">
          <mxGeometry width="50" height="50" relative="1" as="geometry">
            <mxPoint x="34" y="1060" as="sourcePoint" />
            <mxPoint x="794" y="1060" as="targetPoint" />
          </mxGeometry>
        </mxCell>
        <mxCell id="7Vq4tPNCKl___RxEntrl-42" value="Пример сценария" style="text;html=1;align=center;verticalAlign=middle;whiteSpace=wrap;rounded=0;fontSize=18;fontStyle=1" parent="1" vertex="1">
          <mxGeometry x="30" y="820" width="180" height="30" as="geometry" />
        </mxCell>
        <mxCell id="7Vq4tPNCKl___RxEntrl-44" value="" style="endArrow=none;html=1;rounded=0;" parent="1" edge="1">
          <mxGeometry width="50" height="50" relative="1" as="geometry">
            <mxPoint x="40" y="800" as="sourcePoint" />
            <mxPoint x="800" y="800" as="targetPoint" />
          </mxGeometry>
        </mxCell>
        <mxCell id="7Vq4tPNCKl___RxEntrl-51" style="edgeStyle=orthogonalEdgeStyle;rounded=0;orthogonalLoop=1;jettySize=auto;html=1;entryX=0;entryY=0.5;entryDx=0;entryDy=0;" parent="1" source="7Vq4tPNCKl___RxEntrl-45" target="7Vq4tPNCKl___RxEntrl-47" edge="1">
          <mxGeometry relative="1" as="geometry" />
        </mxCell>
        <mxCell id="7Vq4tPNCKl___RxEntrl-45" value="&lt;b&gt;Зарегистрироваться&lt;/b&gt; - создаёт аккаунт, указывая email и пароль" style="rounded=0;whiteSpace=wrap;html=1;fillColor=#fff2cc;strokeColor=#d6b656;" parent="1" vertex="1">
          <mxGeometry x="39" y="890" width="130" height="60" as="geometry" />
        </mxCell>
        <mxCell id="7Vq4tPNCKl___RxEntrl-52" style="edgeStyle=orthogonalEdgeStyle;rounded=0;orthogonalLoop=1;jettySize=auto;html=1;entryX=0;entryY=0.5;entryDx=0;entryDy=0;" parent="1" source="7Vq4tPNCKl___RxEntrl-46" target="7Vq4tPNCKl___RxEntrl-47" edge="1">
          <mxGeometry relative="1" as="geometry" />
        </mxCell>
        <mxCell id="7Vq4tPNCKl___RxEntrl-46" value="&lt;b&gt;Войти в систему&lt;/b&gt;- авторизуется по email и паролю" style="rounded=0;whiteSpace=wrap;html=1;fillColor=#fff2cc;strokeColor=#d6b656;" parent="1" vertex="1">
          <mxGeometry x="39" y="970" width="130" height="60" as="geometry" />
        </mxCell>
        <mxCell id="7Vq4tPNCKl___RxEntrl-53" style="edgeStyle=orthogonalEdgeStyle;rounded=0;orthogonalLoop=1;jettySize=auto;html=1;" parent="1" source="7Vq4tPNCKl___RxEntrl-47" target="7Vq4tPNCKl___RxEntrl-49" edge="1">
          <mxGeometry relative="1" as="geometry" />
        </mxCell>
        <mxCell id="7Vq4tPNCKl___RxEntrl-47" value="&lt;b&gt;Просмотреть каталог товара- &lt;/b&gt;получает список товаров &lt;br&gt;с пагинацией" style="rounded=0;whiteSpace=wrap;html=1;fillColor=#ffe6cc;strokeColor=#d79b00;" parent="1" vertex="1">
          <mxGeometry x="199" y="920" width="120" height="80" as="geometry" />
        </mxCell>
        <mxCell id="7Vq4tPNCKl___RxEntrl-55" style="edgeStyle=orthogonalEdgeStyle;rounded=0;orthogonalLoop=1;jettySize=auto;html=1;entryX=0;entryY=0.5;entryDx=0;entryDy=0;" parent="1" source="7Vq4tPNCKl___RxEntrl-48" target="7Vq4tPNCKl___RxEntrl-50" edge="1">
          <mxGeometry relative="1" as="geometry" />
        </mxCell>
        <mxCell id="7Vq4tPNCKl___RxEntrl-48" value="&lt;b&gt;Оформить заказ&lt;/b&gt; - создаёт заказ на основе выбранных товаров" style="rounded=0;whiteSpace=wrap;html=1;fillColor=#d5e8d4;strokeColor=#82b366;" parent="1" vertex="1">
          <mxGeometry x="509" y="930" width="120" height="60" as="geometry" />
        </mxCell>
        <mxCell id="7Vq4tPNCKl___RxEntrl-54" style="edgeStyle=orthogonalEdgeStyle;rounded=0;orthogonalLoop=1;jettySize=auto;html=1;entryX=0;entryY=0.5;entryDx=0;entryDy=0;" parent="1" source="7Vq4tPNCKl___RxEntrl-49" target="7Vq4tPNCKl___RxEntrl-48" edge="1">
          <mxGeometry relative="1" as="geometry" />
        </mxCell>
        <mxCell id="7Vq4tPNCKl___RxEntrl-49" value="&lt;b&gt;Добавить товар &lt;br&gt;в корзину&lt;/b&gt;" style="rounded=0;whiteSpace=wrap;html=1;fillColor=#d5e8d4;strokeColor=#82b366;" parent="1" vertex="1">
          <mxGeometry x="352.5" y="930" width="120" height="60" as="geometry" />
        </mxCell>
        <mxCell id="7Vq4tPNCKl___RxEntrl-50" value="&lt;b&gt;Покупатель получает подтврждение&lt;/b&gt; (отправка email, смс)" style="rounded=0;whiteSpace=wrap;html=1;fillColor=#dae8fc;strokeColor=#6c8ebf;" parent="1" vertex="1">
          <mxGeometry x="669" y="930" width="120" height="60" as="geometry" />
        </mxCell>
        <mxCell id="7Vq4tPNCKl___RxEntrl-56" value="&lt;b&gt;&amp;nbsp; &amp;nbsp; &amp;nbsp; &amp;nbsp; Order Service:&lt;/b&gt;&lt;br&gt;&lt;ul&gt;&lt;li&gt;Проверяет токен пользователя через UserService&lt;/li&gt;&lt;li&gt;Запрашивает данные товара и резервирует его через Product Service&lt;/li&gt;&lt;li&gt;Создаёт заказ&lt;/li&gt;&lt;/ul&gt;" style="text;html=1;align=left;verticalAlign=middle;whiteSpace=wrap;rounded=0;" parent="1" vertex="1">
          <mxGeometry x="472.5" y="856" width="257.5" height="30" as="geometry" />
        </mxCell>
        <mxCell id="Fu-PqItD3y-VU5FQlfVd-2" value="Пользователь" style="shape=umlActor;verticalLabelPosition=bottom;verticalAlign=top;html=1;outlineConnect=0;" parent="1" vertex="1">
          <mxGeometry x="1040" y="405" width="30" height="60" as="geometry" />
        </mxCell>
        <mxCell id="Fu-PqItD3y-VU5FQlfVd-6" value="Гость" style="shape=umlActor;verticalLabelPosition=bottom;verticalAlign=top;html=1;outlineConnect=0;" parent="1" vertex="1">
          <mxGeometry x="1040" y="40" width="30" height="60" as="geometry" />
        </mxCell>
        <mxCell id="Fu-PqItD3y-VU5FQlfVd-10" value="&lt;b&gt;Просмотреть каталог товаров&lt;/b&gt;" style="ellipse;whiteSpace=wrap;html=1;" parent="1" vertex="1">
          <mxGeometry x="1190" y="35" width="140" height="70" as="geometry" />
        </mxCell>
        <mxCell id="Fu-PqItD3y-VU5FQlfVd-12" value="extend" style="html=1;verticalAlign=bottom;endArrow=open;dashed=1;endSize=8;curved=0;rounded=0;" parent="1" source="Fu-PqItD3y-VU5FQlfVd-13" target="Fu-PqItD3y-VU5FQlfVd-10" edge="1">
          <mxGeometry relative="1" as="geometry">
            <mxPoint x="1510" y="220" as="sourcePoint" />
            <mxPoint x="1279.2819014794136" y="35.08696362069986" as="targetPoint" />
          </mxGeometry>
        </mxCell>
        <mxCell id="Fu-PqItD3y-VU5FQlfVd-13" value="&lt;b&gt;Фильтровать товары&lt;/b&gt;" style="ellipse;whiteSpace=wrap;html=1;" parent="1" vertex="1">
          <mxGeometry x="1190" y="-90" width="140" height="70" as="geometry" />
        </mxCell>
        <mxCell id="Fu-PqItD3y-VU5FQlfVd-14" value="&lt;b&gt;Посмотреть конкретный товар&lt;/b&gt;" style="ellipse;whiteSpace=wrap;html=1;" parent="1" vertex="1">
          <mxGeometry x="1440" y="35" width="140" height="70" as="geometry" />
        </mxCell>
        <mxCell id="Fu-PqItD3y-VU5FQlfVd-17" value="&lt;b&gt;Добавить в корзину&lt;/b&gt;" style="ellipse;whiteSpace=wrap;html=1;" parent="1" vertex="1">
          <mxGeometry x="1660" y="150" width="140" height="70" as="geometry" />
        </mxCell>
        <mxCell id="Fu-PqItD3y-VU5FQlfVd-25" value="" style="endArrow=block;html=1;rounded=0;startArrow=none;startFill=0;endFill=1;" parent="1" source="Fu-PqItD3y-VU5FQlfVd-10" target="Fu-PqItD3y-VU5FQlfVd-17" edge="1">
          <mxGeometry relative="1" as="geometry">
            <mxPoint x="1430" y="110" as="sourcePoint" />
            <mxPoint x="1540" y="110" as="targetPoint" />
          </mxGeometry>
        </mxCell>
        <mxCell id="Fu-PqItD3y-VU5FQlfVd-26" value="" style="endArrow=block;html=1;rounded=0;endFill=1;" parent="1" source="Fu-PqItD3y-VU5FQlfVd-14" target="Fu-PqItD3y-VU5FQlfVd-17" edge="1">
          <mxGeometry relative="1" as="geometry">
            <mxPoint x="1360" y="170" as="sourcePoint" />
            <mxPoint x="1428" y="279" as="targetPoint" />
          </mxGeometry>
        </mxCell>
        <mxCell id="Fu-PqItD3y-VU5FQlfVd-27" value="&lt;b&gt;Зарегистироваться&lt;/b&gt;" style="ellipse;whiteSpace=wrap;html=1;" parent="1" vertex="1">
          <mxGeometry x="1190" y="150" width="140" height="70" as="geometry" />
        </mxCell>
        <mxCell id="Fu-PqItD3y-VU5FQlfVd-28" value="include" style="html=1;verticalAlign=bottom;endArrow=open;dashed=1;endSize=8;curved=0;rounded=0;" parent="1" source="Fu-PqItD3y-VU5FQlfVd-17" target="Fu-PqItD3y-VU5FQlfVd-27" edge="1">
          <mxGeometry relative="1" as="geometry">
            <mxPoint x="1310" as="sourcePoint" />
            <mxPoint x="1320" y="340" as="targetPoint" />
          </mxGeometry>
        </mxCell>
        <mxCell id="Fu-PqItD3y-VU5FQlfVd-30" value="&lt;b&gt;Войти&lt;/b&gt;" style="ellipse;whiteSpace=wrap;html=1;" parent="1" vertex="1">
          <mxGeometry x="1200" y="400" width="140" height="70" as="geometry" />
        </mxCell>
        <mxCell id="Fu-PqItD3y-VU5FQlfVd-32" value="" style="endArrow=block;html=1;rounded=0;startArrow=none;startFill=0;endFill=1;" parent="1" source="Fu-PqItD3y-VU5FQlfVd-27" target="Fu-PqItD3y-VU5FQlfVd-2" edge="1">
          <mxGeometry relative="1" as="geometry">
            <mxPoint x="1360" y="210" as="sourcePoint" />
            <mxPoint x="1422" y="265" as="targetPoint" />
          </mxGeometry>
        </mxCell>
        <mxCell id="Fu-PqItD3y-VU5FQlfVd-38" value="" style="endArrow=block;html=1;rounded=0;startArrow=none;startFill=0;endFill=1;" parent="1" source="Fu-PqItD3y-VU5FQlfVd-10" target="Fu-PqItD3y-VU5FQlfVd-14" edge="1">
          <mxGeometry relative="1" as="geometry">
            <mxPoint x="1360" y="110" as="sourcePoint" />
            <mxPoint x="1422" y="165" as="targetPoint" />
          </mxGeometry>
        </mxCell>
        <mxCell id="Fu-PqItD3y-VU5FQlfVd-39" value="" style="endArrow=block;html=1;rounded=0;startArrow=none;startFill=0;endFill=1;" parent="1" source="Fu-PqItD3y-VU5FQlfVd-6" target="Fu-PqItD3y-VU5FQlfVd-10" edge="1">
          <mxGeometry relative="1" as="geometry">
            <mxPoint x="1290" y="90" as="sourcePoint" />
            <mxPoint x="1400" y="90" as="targetPoint" />
          </mxGeometry>
        </mxCell>
        <mxCell id="Fu-PqItD3y-VU5FQlfVd-40" value="" style="endArrow=block;html=1;rounded=0;startArrow=none;startFill=0;endFill=1;" parent="1" source="Fu-PqItD3y-VU5FQlfVd-6" target="Fu-PqItD3y-VU5FQlfVd-27" edge="1">
          <mxGeometry relative="1" as="geometry">
            <mxPoint x="1170" y="120" as="sourcePoint" />
            <mxPoint x="1290" y="120" as="targetPoint" />
          </mxGeometry>
        </mxCell>
        <mxCell id="Fu-PqItD3y-VU5FQlfVd-41" value="" style="endArrow=block;html=1;rounded=0;startArrow=none;startFill=0;endFill=1;" parent="1" source="Fu-PqItD3y-VU5FQlfVd-2" target="Fu-PqItD3y-VU5FQlfVd-30" edge="1">
          <mxGeometry relative="1" as="geometry">
            <mxPoint x="1240" y="120" as="sourcePoint" />
            <mxPoint x="1317" y="190" as="targetPoint" />
          </mxGeometry>
        </mxCell>
        <mxCell id="Fu-PqItD3y-VU5FQlfVd-42" value="&lt;b&gt;Просмотреть каталог товаров&lt;/b&gt;" style="ellipse;whiteSpace=wrap;html=1;" parent="1" vertex="1">
          <mxGeometry x="1440" y="400" width="140" height="70" as="geometry" />
        </mxCell>
        <mxCell id="Fu-PqItD3y-VU5FQlfVd-43" value="extend" style="html=1;verticalAlign=bottom;endArrow=open;dashed=1;endSize=8;curved=0;rounded=0;" parent="1" source="Fu-PqItD3y-VU5FQlfVd-44" target="Fu-PqItD3y-VU5FQlfVd-42" edge="1">
          <mxGeometry relative="1" as="geometry">
            <mxPoint x="1760" y="585" as="sourcePoint" />
            <mxPoint x="1529.2819014794136" y="400.08696362069986" as="targetPoint" />
          </mxGeometry>
        </mxCell>
        <mxCell id="Fu-PqItD3y-VU5FQlfVd-44" value="&lt;b&gt;Фильтровать товары&lt;/b&gt;" style="ellipse;whiteSpace=wrap;html=1;" parent="1" vertex="1">
          <mxGeometry x="1440" y="270" width="140" height="70" as="geometry" />
        </mxCell>
        <mxCell id="Fu-PqItD3y-VU5FQlfVd-45" value="&lt;b&gt;Посмотреть конкретный товар&lt;/b&gt;" style="ellipse;whiteSpace=wrap;html=1;" parent="1" vertex="1">
          <mxGeometry x="1660" y="400" width="140" height="70" as="geometry" />
        </mxCell>
        <mxCell id="Fu-PqItD3y-VU5FQlfVd-46" value="" style="endArrow=block;html=1;rounded=0;startArrow=none;startFill=0;endFill=1;" parent="1" source="Fu-PqItD3y-VU5FQlfVd-42" target="Fu-PqItD3y-VU5FQlfVd-45" edge="1">
          <mxGeometry relative="1" as="geometry">
            <mxPoint x="1610" y="475" as="sourcePoint" />
            <mxPoint x="1672" y="530" as="targetPoint" />
          </mxGeometry>
        </mxCell>
        <mxCell id="Fu-PqItD3y-VU5FQlfVd-47" value="" style="endArrow=block;html=1;rounded=0;startArrow=none;startFill=0;endFill=1;" parent="1" source="Fu-PqItD3y-VU5FQlfVd-30" target="Fu-PqItD3y-VU5FQlfVd-42" edge="1">
          <mxGeometry relative="1" as="geometry">
            <mxPoint x="1350" y="340" as="sourcePoint" />
            <mxPoint x="1427" y="410" as="targetPoint" />
          </mxGeometry>
        </mxCell>
        <mxCell id="Fu-PqItD3y-VU5FQlfVd-50" value="&lt;b&gt;Добавить в корзину&lt;/b&gt;" style="ellipse;whiteSpace=wrap;html=1;" parent="1" vertex="1">
          <mxGeometry x="1880" y="530" width="140" height="70" as="geometry" />
        </mxCell>
        <mxCell id="Fu-PqItD3y-VU5FQlfVd-51" value="" style="endArrow=block;html=1;rounded=0;startArrow=none;startFill=0;endFill=1;" parent="1" source="Fu-PqItD3y-VU5FQlfVd-42" target="Fu-PqItD3y-VU5FQlfVd-50" edge="1">
          <mxGeometry relative="1" as="geometry">
            <mxPoint x="1834.4042229619913" y="670.4809343786064" as="sourcePoint" />
            <mxPoint x="2080" y="680" as="targetPoint" />
          </mxGeometry>
        </mxCell>
        <mxCell id="Fu-PqItD3y-VU5FQlfVd-52" value="" style="endArrow=block;html=1;rounded=0;endFill=1;" parent="1" source="Fu-PqItD3y-VU5FQlfVd-45" target="Fu-PqItD3y-VU5FQlfVd-50" edge="1">
          <mxGeometry relative="1" as="geometry">
            <mxPoint x="2017.4616270707056" y="670.9889265993284" as="sourcePoint" />
            <mxPoint x="1968" y="849" as="targetPoint" />
          </mxGeometry>
        </mxCell>
        <mxCell id="Fu-PqItD3y-VU5FQlfVd-54" value="&lt;b&gt;Сделать заказ, удаляется из корзины&lt;/b&gt;" style="ellipse;whiteSpace=wrap;html=1;" parent="1" vertex="1">
          <mxGeometry x="2100" y="530" width="140" height="70" as="geometry" />
        </mxCell>
        <mxCell id="Fu-PqItD3y-VU5FQlfVd-55" value="" style="endArrow=block;html=1;rounded=0;endFill=1;" parent="1" source="Fu-PqItD3y-VU5FQlfVd-50" target="Fu-PqItD3y-VU5FQlfVd-54" edge="1">
          <mxGeometry relative="1" as="geometry">
            <mxPoint x="1805" y="555" as="sourcePoint" />
            <mxPoint x="1750" y="608" as="targetPoint" />
          </mxGeometry>
        </mxCell>
        <mxCell id="Fu-PqItD3y-VU5FQlfVd-58" value="&lt;b&gt;Редактировать профиль&lt;/b&gt;" style="ellipse;whiteSpace=wrap;html=1;" parent="1" vertex="1">
          <mxGeometry x="1440" y="495" width="140" height="70" as="geometry" />
        </mxCell>
        <mxCell id="Fu-PqItD3y-VU5FQlfVd-59" value="" style="endArrow=block;html=1;rounded=0;startArrow=none;startFill=0;endFill=1;" parent="1" source="Fu-PqItD3y-VU5FQlfVd-30" target="Fu-PqItD3y-VU5FQlfVd-58" edge="1">
          <mxGeometry relative="1" as="geometry">
            <mxPoint x="1430" y="450" as="sourcePoint" />
            <mxPoint x="1550" y="450" as="targetPoint" />
          </mxGeometry>
        </mxCell>
        <mxCell id="Fu-PqItD3y-VU5FQlfVd-61" value="&lt;b&gt;Статусы заказа:&lt;br&gt;1) В обработке (ожидает подтверждения админа)&lt;br&gt;2) Отклонён админом&lt;br&gt;3) Ожидает оплаты&lt;br&gt;4) Собирается&lt;br&gt;5) В доставке&lt;br&gt;6) Доставлен (ожидает подтверждения от пользователя)&lt;br&gt;7) Реализован&lt;br&gt;8) Возврат&lt;br&gt;&lt;br&gt;&lt;/b&gt;" style="shape=note;size=20;whiteSpace=wrap;html=1;align=left;" parent="1" vertex="1">
          <mxGeometry x="2000" y="280" width="160" height="200" as="geometry" />
        </mxCell>
        <mxCell id="Fu-PqItD3y-VU5FQlfVd-82" value="&lt;b&gt;Просмотреть свои заказы&lt;/b&gt;" style="ellipse;whiteSpace=wrap;html=1;" parent="1" vertex="1">
          <mxGeometry x="1440" y="630" width="140" height="70" as="geometry" />
        </mxCell>
        <mxCell id="Fu-PqItD3y-VU5FQlfVd-83" value="" style="endArrow=block;html=1;rounded=0;startArrow=none;startFill=0;endFill=1;" parent="1" source="Fu-PqItD3y-VU5FQlfVd-30" target="Fu-PqItD3y-VU5FQlfVd-82" edge="1">
          <mxGeometry relative="1" as="geometry">
            <mxPoint x="1420" y="560" as="sourcePoint" />
            <mxPoint x="1540" y="560" as="targetPoint" />
          </mxGeometry>
        </mxCell>
        <mxCell id="Fu-PqItD3y-VU5FQlfVd-84" value="&lt;b&gt;Посмотреть заказ&lt;/b&gt;" style="ellipse;whiteSpace=wrap;html=1;" parent="1" vertex="1">
          <mxGeometry x="1660" y="635" width="140" height="70" as="geometry" />
        </mxCell>
        <mxCell id="Fu-PqItD3y-VU5FQlfVd-85" value="" style="endArrow=block;html=1;rounded=0;startArrow=none;startFill=0;endFill=1;" parent="1" source="Fu-PqItD3y-VU5FQlfVd-82" target="Fu-PqItD3y-VU5FQlfVd-84" edge="1">
          <mxGeometry relative="1" as="geometry">
            <mxPoint x="1520" y="640" as="sourcePoint" />
            <mxPoint x="1696" y="808" as="targetPoint" />
          </mxGeometry>
        </mxCell>
        <mxCell id="Fu-PqItD3y-VU5FQlfVd-86" value="&lt;b&gt;Отменить заказ&lt;/b&gt;" style="ellipse;whiteSpace=wrap;html=1;" parent="1" vertex="1">
          <mxGeometry x="1880" y="635" width="140" height="70" as="geometry" />
        </mxCell>
        <mxCell id="Fu-PqItD3y-VU5FQlfVd-87" value="" style="endArrow=block;html=1;rounded=0;startArrow=none;startFill=0;endFill=1;" parent="1" source="Fu-PqItD3y-VU5FQlfVd-84" target="Fu-PqItD3y-VU5FQlfVd-86" edge="1">
          <mxGeometry relative="1" as="geometry">
            <mxPoint x="1680" y="710" as="sourcePoint" />
            <mxPoint x="1760" y="711" as="targetPoint" />
          </mxGeometry>
        </mxCell>
        <mxCell id="Fu-PqItD3y-VU5FQlfVd-94" value="&lt;b&gt;Возврат средств&lt;/b&gt;" style="ellipse;whiteSpace=wrap;html=1;" parent="1" vertex="1">
          <mxGeometry x="1880" y="770" width="140" height="70" as="geometry" />
        </mxCell>
        <mxCell id="Fu-PqItD3y-VU5FQlfVd-95" value="include" style="html=1;verticalAlign=bottom;endArrow=open;dashed=1;endSize=8;curved=0;rounded=0;" parent="1" source="Fu-PqItD3y-VU5FQlfVd-86" target="Fu-PqItD3y-VU5FQlfVd-94" edge="1">
          <mxGeometry relative="1" as="geometry">
            <mxPoint x="2090" y="730" as="sourcePoint" />
            <mxPoint x="1700" y="600" as="targetPoint" />
          </mxGeometry>
        </mxCell>
        <mxCell id="Fu-PqItD3y-VU5FQlfVd-104" value="&lt;b&gt;Уведомления&lt;/b&gt;" style="shape=note;size=20;whiteSpace=wrap;html=1;" parent="1" vertex="1">
          <mxGeometry x="2300" y="1810" width="100" height="100" as="geometry" />
        </mxCell>
        <mxCell id="Fu-PqItD3y-VU5FQlfVd-105" value="&lt;b&gt;Отзывы&lt;/b&gt;" style="shape=note;size=20;whiteSpace=wrap;html=1;" parent="1" vertex="1">
          <mxGeometry x="2420" y="1810" width="100" height="100" as="geometry" />
        </mxCell>
        <mxCell id="Fu-PqItD3y-VU5FQlfVd-106" value="&lt;b&gt;Доставка&lt;/b&gt;" style="shape=note;size=20;whiteSpace=wrap;html=1;" parent="1" vertex="1">
          <mxGeometry x="2550" y="1810" width="100" height="100" as="geometry" />
        </mxCell>
        <mxCell id="Fu-PqItD3y-VU5FQlfVd-107" value="Админ" style="shape=umlActor;verticalLabelPosition=bottom;verticalAlign=top;html=1;outlineConnect=0;" parent="1" vertex="1">
          <mxGeometry x="1040" y="1000" width="30" height="60" as="geometry" />
        </mxCell>
        <mxCell id="Fu-PqItD3y-VU5FQlfVd-108" value="" style="endArrow=block;html=1;rounded=0;startArrow=none;startFill=0;endFill=1;" parent="1" source="Fu-PqItD3y-VU5FQlfVd-27" target="Fu-PqItD3y-VU5FQlfVd-107" edge="1">
          <mxGeometry relative="1" as="geometry">
            <mxPoint x="1310" y="1140" as="sourcePoint" />
            <mxPoint x="1010" y="1820" as="targetPoint" />
            <Array as="points">
              <mxPoint x="960" y="190" />
              <mxPoint x="960" y="1030" />
            </Array>
          </mxGeometry>
        </mxCell>
        <mxCell id="Fu-PqItD3y-VU5FQlfVd-110" value="&lt;b&gt;Войти&lt;/b&gt;" style="ellipse;whiteSpace=wrap;html=1;" parent="1" vertex="1">
          <mxGeometry x="1200" y="995" width="140" height="70" as="geometry" />
        </mxCell>
        <mxCell id="Fu-PqItD3y-VU5FQlfVd-111" value="" style="endArrow=block;html=1;rounded=0;startArrow=none;startFill=0;endFill=1;" parent="1" source="Fu-PqItD3y-VU5FQlfVd-107" target="Fu-PqItD3y-VU5FQlfVd-110" edge="1">
          <mxGeometry relative="1" as="geometry">
            <mxPoint x="1110" y="1060" as="sourcePoint" />
            <mxPoint x="1327" y="785" as="targetPoint" />
          </mxGeometry>
        </mxCell>
        <mxCell id="Fu-PqItD3y-VU5FQlfVd-112" value="&lt;b&gt;Просмотреть каталог товаров&lt;/b&gt;" style="ellipse;whiteSpace=wrap;html=1;" parent="1" vertex="1">
          <mxGeometry x="1440" y="995" width="140" height="70" as="geometry" />
        </mxCell>
        <mxCell id="Fu-PqItD3y-VU5FQlfVd-113" value="extend" style="html=1;verticalAlign=bottom;endArrow=open;dashed=1;endSize=8;curved=0;rounded=0;" parent="1" source="Fu-PqItD3y-VU5FQlfVd-114" target="Fu-PqItD3y-VU5FQlfVd-112" edge="1">
          <mxGeometry relative="1" as="geometry">
            <mxPoint x="1760" y="1180" as="sourcePoint" />
            <mxPoint x="1529.2819014794136" y="995.0869636206999" as="targetPoint" />
          </mxGeometry>
        </mxCell>
        <mxCell id="Fu-PqItD3y-VU5FQlfVd-114" value="&lt;b&gt;Фильтровать товары&lt;/b&gt;" style="ellipse;whiteSpace=wrap;html=1;" parent="1" vertex="1">
          <mxGeometry x="1440" y="860" width="140" height="70" as="geometry" />
        </mxCell>
        <mxCell id="Fu-PqItD3y-VU5FQlfVd-115" value="&lt;b&gt;Посмотреть конкретный товар&lt;/b&gt;" style="ellipse;whiteSpace=wrap;html=1;" parent="1" vertex="1">
          <mxGeometry x="1660" y="995" width="140" height="70" as="geometry" />
        </mxCell>
        <mxCell id="Fu-PqItD3y-VU5FQlfVd-116" value="" style="endArrow=block;html=1;rounded=0;startArrow=none;startFill=0;endFill=1;" parent="1" source="Fu-PqItD3y-VU5FQlfVd-112" target="Fu-PqItD3y-VU5FQlfVd-115" edge="1">
          <mxGeometry relative="1" as="geometry">
            <mxPoint x="1610" y="1070" as="sourcePoint" />
            <mxPoint x="1672" y="1125" as="targetPoint" />
          </mxGeometry>
        </mxCell>
        <mxCell id="Fu-PqItD3y-VU5FQlfVd-117" value="" style="endArrow=block;html=1;rounded=0;startArrow=none;startFill=0;endFill=1;" parent="1" source="Fu-PqItD3y-VU5FQlfVd-110" target="Fu-PqItD3y-VU5FQlfVd-112" edge="1">
          <mxGeometry relative="1" as="geometry">
            <mxPoint x="1360" y="935" as="sourcePoint" />
            <mxPoint x="1437" y="1005" as="targetPoint" />
          </mxGeometry>
        </mxCell>
        <mxCell id="Fu-PqItD3y-VU5FQlfVd-118" value="&lt;b&gt;Добавть товар (карточку: название, описание, количество)&lt;/b&gt;" style="ellipse;whiteSpace=wrap;html=1;" parent="1" vertex="1">
          <mxGeometry x="1654" y="1130" width="140" height="70" as="geometry" />
        </mxCell>
        <mxCell id="Fu-PqItD3y-VU5FQlfVd-119" value="" style="endArrow=block;html=1;rounded=0;startArrow=none;startFill=0;endFill=1;" parent="1" source="Fu-PqItD3y-VU5FQlfVd-112" target="Fu-PqItD3y-VU5FQlfVd-118" edge="1">
          <mxGeometry relative="1" as="geometry">
            <mxPoint x="1240" y="1140" as="sourcePoint" />
            <mxPoint x="1370" y="1140" as="targetPoint" />
          </mxGeometry>
        </mxCell>
        <mxCell id="wn-SuR4RgDLq-diN6uzG-1" value="&lt;b&gt;Статус заказа (в обработке)&lt;/b&gt;" style="ellipse;whiteSpace=wrap;html=1;" vertex="1" parent="1">
          <mxGeometry x="2170" y="630" width="140" height="70" as="geometry" />
        </mxCell>
        <mxCell id="wn-SuR4RgDLq-diN6uzG-2" value="" style="endArrow=block;html=1;rounded=0;endFill=1;" edge="1" parent="1" source="Fu-PqItD3y-VU5FQlfVd-54" target="wn-SuR4RgDLq-diN6uzG-1">
          <mxGeometry relative="1" as="geometry">
            <mxPoint x="2180" y="610" as="sourcePoint" />
            <mxPoint x="2260" y="610" as="targetPoint" />
          </mxGeometry>
        </mxCell>
        <mxCell id="wn-SuR4RgDLq-diN6uzG-32" style="edgeStyle=orthogonalEdgeStyle;rounded=0;orthogonalLoop=1;jettySize=auto;html=1;" edge="1" parent="1" source="wn-SuR4RgDLq-diN6uzG-4" target="wn-SuR4RgDLq-diN6uzG-28">
          <mxGeometry relative="1" as="geometry" />
        </mxCell>
        <mxCell id="wn-SuR4RgDLq-diN6uzG-4" value="&lt;b&gt;Посмотреть заявки&lt;/b&gt;" style="ellipse;whiteSpace=wrap;html=1;" vertex="1" parent="1">
          <mxGeometry x="1654" y="860" width="140" height="70" as="geometry" />
        </mxCell>
        <mxCell id="wn-SuR4RgDLq-diN6uzG-5" value="&lt;b&gt;Отправить в доставку, указать дату и время доставки&lt;/b&gt;" style="ellipse;whiteSpace=wrap;html=1;" vertex="1" parent="1">
          <mxGeometry x="2280" y="860" width="140" height="70" as="geometry" />
        </mxCell>
        <mxCell id="wn-SuR4RgDLq-diN6uzG-6" value="&lt;b&gt;Статус заказа (собирается), товар уходит из ленты, либо уменьшается его количество&lt;/b&gt;" style="ellipse;whiteSpace=wrap;html=1;" vertex="1" parent="1">
          <mxGeometry x="2310" y="680" width="180" height="105" as="geometry" />
        </mxCell>
        <mxCell id="wn-SuR4RgDLq-diN6uzG-7" value="" style="endArrow=block;html=1;rounded=0;endFill=1;" edge="1" parent="1" source="wn-SuR4RgDLq-diN6uzG-51" target="wn-SuR4RgDLq-diN6uzG-6">
          <mxGeometry relative="1" as="geometry">
            <mxPoint x="2320" y="670" as="sourcePoint" />
            <mxPoint x="2320" y="705" as="targetPoint" />
          </mxGeometry>
        </mxCell>
        <mxCell id="wn-SuR4RgDLq-diN6uzG-52" value="Оплата прошла" style="edgeLabel;html=1;align=center;verticalAlign=middle;resizable=0;points=[];" vertex="1" connectable="0" parent="wn-SuR4RgDLq-diN6uzG-7">
          <mxGeometry x="-0.0398" y="-1" relative="1" as="geometry">
            <mxPoint as="offset" />
          </mxGeometry>
        </mxCell>
        <mxCell id="wn-SuR4RgDLq-diN6uzG-8" value="" style="endArrow=block;html=1;rounded=0;startArrow=none;startFill=0;endFill=1;" edge="1" parent="1" source="Fu-PqItD3y-VU5FQlfVd-112" target="wn-SuR4RgDLq-diN6uzG-4">
          <mxGeometry relative="1" as="geometry">
            <mxPoint x="1630" y="1020" as="sourcePoint" />
            <mxPoint x="1710" y="1020" as="targetPoint" />
          </mxGeometry>
        </mxCell>
        <mxCell id="wn-SuR4RgDLq-diN6uzG-12" value="" style="edgeStyle=orthogonalEdgeStyle;rounded=0;orthogonalLoop=1;jettySize=auto;html=1;" edge="1" parent="1" source="wn-SuR4RgDLq-diN6uzG-28" target="wn-SuR4RgDLq-diN6uzG-9">
          <mxGeometry relative="1" as="geometry">
            <mxPoint x="1930" y="890" as="sourcePoint" />
            <mxPoint x="1840" y="960" as="targetPoint" />
          </mxGeometry>
        </mxCell>
        <mxCell id="wn-SuR4RgDLq-diN6uzG-9" value="&lt;b&gt;Подтвердить заявку&lt;/b&gt;" style="ellipse;whiteSpace=wrap;html=1;" vertex="1" parent="1">
          <mxGeometry x="2060" y="860" width="140" height="70" as="geometry" />
        </mxCell>
        <mxCell id="wn-SuR4RgDLq-diN6uzG-11" value="&lt;b&gt;Отклонить заявку&lt;/b&gt;" style="ellipse;whiteSpace=wrap;html=1;" vertex="1" parent="1">
          <mxGeometry x="2060" y="1020" width="140" height="70" as="geometry" />
        </mxCell>
        <mxCell id="wn-SuR4RgDLq-diN6uzG-13" value="" style="endArrow=block;html=1;rounded=0;startArrow=none;startFill=0;endFill=1;" edge="1" parent="1" source="wn-SuR4RgDLq-diN6uzG-28" target="wn-SuR4RgDLq-diN6uzG-11">
          <mxGeometry relative="1" as="geometry">
            <mxPoint x="1900" y="950" as="sourcePoint" />
            <mxPoint x="1986" y="950" as="targetPoint" />
          </mxGeometry>
        </mxCell>
        <mxCell id="wn-SuR4RgDLq-diN6uzG-14" value="include" style="html=1;verticalAlign=bottom;endArrow=open;dashed=1;endSize=8;curved=0;rounded=0;" edge="1" parent="1" target="wn-SuR4RgDLq-diN6uzG-9">
          <mxGeometry relative="1" as="geometry">
            <mxPoint x="2340" y="610" as="sourcePoint" />
            <mxPoint x="2030" y="825" as="targetPoint" />
            <Array as="points">
              <mxPoint x="2280" y="760" />
            </Array>
          </mxGeometry>
        </mxCell>
        <mxCell id="wn-SuR4RgDLq-diN6uzG-16" value="" style="endArrow=block;html=1;rounded=0;startArrow=none;startFill=0;endFill=1;" edge="1" parent="1" source="wn-SuR4RgDLq-diN6uzG-9" target="wn-SuR4RgDLq-diN6uzG-5">
          <mxGeometry relative="1" as="geometry">
            <mxPoint x="2070" y="1030" as="sourcePoint" />
            <mxPoint x="2196" y="1046" as="targetPoint" />
          </mxGeometry>
        </mxCell>
        <mxCell id="wn-SuR4RgDLq-diN6uzG-18" value="" style="endArrow=block;html=1;rounded=0;startArrow=none;startFill=0;endFill=1;dashed=1;entryX=0;entryY=0;entryDx=0;entryDy=0;entryPerimeter=0;" edge="1" parent="1" target="wn-SuR4RgDLq-diN6uzG-54">
          <mxGeometry relative="1" as="geometry">
            <mxPoint x="2030" y="895" as="sourcePoint" />
            <mxPoint x="2121" y="1044" as="targetPoint" />
            <Array as="points">
              <mxPoint x="2040" y="940" />
            </Array>
          </mxGeometry>
        </mxCell>
        <mxCell id="wn-SuR4RgDLq-diN6uzG-23" value="Если висит больше 2 дней" style="edgeLabel;html=1;align=center;verticalAlign=middle;resizable=0;points=[];" vertex="1" connectable="0" parent="wn-SuR4RgDLq-diN6uzG-18">
          <mxGeometry x="0.2653" relative="1" as="geometry">
            <mxPoint x="1" as="offset" />
          </mxGeometry>
        </mxCell>
        <mxCell id="wn-SuR4RgDLq-diN6uzG-19" value="&lt;b&gt;Статус заказа (в доставке)&lt;/b&gt;" style="ellipse;whiteSpace=wrap;html=1;" vertex="1" parent="1">
          <mxGeometry x="2520" y="760" width="140" height="70" as="geometry" />
        </mxCell>
        <mxCell id="wn-SuR4RgDLq-diN6uzG-20" value="" style="endArrow=block;html=1;rounded=0;endFill=1;" edge="1" parent="1" source="wn-SuR4RgDLq-diN6uzG-6" target="wn-SuR4RgDLq-diN6uzG-19">
          <mxGeometry relative="1" as="geometry">
            <mxPoint x="2250" y="800" as="sourcePoint" />
            <mxPoint x="2250" y="846" as="targetPoint" />
          </mxGeometry>
        </mxCell>
        <mxCell id="wn-SuR4RgDLq-diN6uzG-21" value="include" style="html=1;verticalAlign=bottom;endArrow=open;dashed=1;endSize=8;curved=0;rounded=0;" edge="1" parent="1" target="wn-SuR4RgDLq-diN6uzG-5">
          <mxGeometry relative="1" as="geometry">
            <mxPoint x="2510" y="770" as="sourcePoint" />
            <mxPoint x="2200" y="939" as="targetPoint" />
          </mxGeometry>
        </mxCell>
        <mxCell id="wn-SuR4RgDLq-diN6uzG-24" value="" style="endArrow=block;html=1;rounded=0;startArrow=none;startFill=0;endFill=1;" edge="1" parent="1" source="wn-SuR4RgDLq-diN6uzG-11">
          <mxGeometry relative="1" as="geometry">
            <mxPoint x="2250" y="1010" as="sourcePoint" />
            <mxPoint x="2280" y="1055" as="targetPoint" />
          </mxGeometry>
        </mxCell>
        <mxCell id="wn-SuR4RgDLq-diN6uzG-26" value="" style="endArrow=block;html=1;rounded=0;startArrow=none;startFill=0;endFill=1;dashed=1;" edge="1" parent="1" target="wn-SuR4RgDLq-diN6uzG-54">
          <mxGeometry relative="1" as="geometry">
            <mxPoint x="2230" y="900" as="sourcePoint" />
            <mxPoint x="2621" y="1091" as="targetPoint" />
            <Array as="points">
              <mxPoint x="2240" y="920" />
            </Array>
          </mxGeometry>
        </mxCell>
        <mxCell id="wn-SuR4RgDLq-diN6uzG-27" value="Если висит больше 2 дней" style="edgeLabel;html=1;align=center;verticalAlign=middle;resizable=0;points=[];" vertex="1" connectable="0" parent="wn-SuR4RgDLq-diN6uzG-26">
          <mxGeometry x="0.2653" relative="1" as="geometry">
            <mxPoint x="-10" y="-17" as="offset" />
          </mxGeometry>
        </mxCell>
        <mxCell id="wn-SuR4RgDLq-diN6uzG-28" value="&lt;b&gt;Посмотреть заявку&lt;/b&gt;" style="ellipse;whiteSpace=wrap;html=1;" vertex="1" parent="1">
          <mxGeometry x="1850" y="860" width="140" height="70" as="geometry" />
        </mxCell>
        <mxCell id="wn-SuR4RgDLq-diN6uzG-33" value="&lt;b&gt;Статус заказа (доставлен)&lt;/b&gt;" style="ellipse;whiteSpace=wrap;html=1;" vertex="1" parent="1">
          <mxGeometry x="2520" y="910" width="140" height="70" as="geometry" />
        </mxCell>
        <mxCell id="wn-SuR4RgDLq-diN6uzG-34" value="" style="endArrow=block;html=1;rounded=0;endFill=1;" edge="1" parent="1" source="wn-SuR4RgDLq-diN6uzG-19" target="wn-SuR4RgDLq-diN6uzG-33">
          <mxGeometry relative="1" as="geometry">
            <mxPoint x="2550" y="830" as="sourcePoint" />
            <mxPoint x="2632" y="847" as="targetPoint" />
          </mxGeometry>
        </mxCell>
        <mxCell id="wn-SuR4RgDLq-diN6uzG-35" value="Когда приходит время доставки" style="edgeLabel;html=1;align=center;verticalAlign=middle;resizable=0;points=[];" vertex="1" connectable="0" parent="wn-SuR4RgDLq-diN6uzG-34">
          <mxGeometry x="-0.075" relative="1" as="geometry">
            <mxPoint as="offset" />
          </mxGeometry>
        </mxCell>
        <mxCell id="wn-SuR4RgDLq-diN6uzG-36" value="&lt;b&gt;Статус заказа (доставлен)&lt;/b&gt;" style="ellipse;whiteSpace=wrap;html=1;" vertex="1" parent="1">
          <mxGeometry x="2520" y="1060" width="140" height="70" as="geometry" />
        </mxCell>
        <mxCell id="wn-SuR4RgDLq-diN6uzG-37" value="" style="endArrow=block;html=1;rounded=0;endFill=1;" edge="1" parent="1" source="wn-SuR4RgDLq-diN6uzG-33" target="wn-SuR4RgDLq-diN6uzG-36">
          <mxGeometry relative="1" as="geometry">
            <mxPoint x="2570" y="870" as="sourcePoint" />
            <mxPoint x="2652" y="887" as="targetPoint" />
          </mxGeometry>
        </mxCell>
        <mxCell id="wn-SuR4RgDLq-diN6uzG-41" value="&lt;b&gt;Статус заказа (реализован)&lt;/b&gt;" style="ellipse;whiteSpace=wrap;html=1;" vertex="1" parent="1">
          <mxGeometry x="2800" y="910" width="140" height="70" as="geometry" />
        </mxCell>
        <mxCell id="wn-SuR4RgDLq-diN6uzG-42" value="" style="endArrow=block;html=1;rounded=0;endFill=1;" edge="1" parent="1" source="wn-SuR4RgDLq-diN6uzG-36" target="wn-SuR4RgDLq-diN6uzG-41">
          <mxGeometry relative="1" as="geometry">
            <mxPoint x="2720" y="1060" as="sourcePoint" />
            <mxPoint x="2720" y="1140" as="targetPoint" />
          </mxGeometry>
        </mxCell>
        <mxCell id="wn-SuR4RgDLq-diN6uzG-45" value="Пользователь подтвердил получение" style="edgeLabel;html=1;align=center;verticalAlign=middle;resizable=0;points=[];" vertex="1" connectable="0" parent="wn-SuR4RgDLq-diN6uzG-42">
          <mxGeometry x="0.137" y="1" relative="1" as="geometry">
            <mxPoint as="offset" />
          </mxGeometry>
        </mxCell>
        <mxCell id="wn-SuR4RgDLq-diN6uzG-43" value="&lt;b&gt;Статус заказа (возврат), возврат в ленту товаров, добавление, или увеличение количества&lt;/b&gt;" style="ellipse;whiteSpace=wrap;html=1;" vertex="1" parent="1">
          <mxGeometry x="2800" y="1180" width="180" height="120" as="geometry" />
        </mxCell>
        <mxCell id="wn-SuR4RgDLq-diN6uzG-44" value="" style="endArrow=block;html=1;rounded=0;endFill=1;" edge="1" parent="1" source="wn-SuR4RgDLq-diN6uzG-36" target="wn-SuR4RgDLq-diN6uzG-43">
          <mxGeometry relative="1" as="geometry">
            <mxPoint x="2830" y="1158" as="sourcePoint" />
            <mxPoint x="3014" y="1060" as="targetPoint" />
          </mxGeometry>
        </mxCell>
        <mxCell id="wn-SuR4RgDLq-diN6uzG-46" value="если пользователь не подтвердил в течение 2 дней" style="edgeLabel;html=1;align=center;verticalAlign=middle;resizable=0;points=[];" vertex="1" connectable="0" parent="wn-SuR4RgDLq-diN6uzG-44">
          <mxGeometry x="0.4296" y="-2" relative="1" as="geometry">
            <mxPoint x="-26" y="-23" as="offset" />
          </mxGeometry>
        </mxCell>
        <mxCell id="wn-SuR4RgDLq-diN6uzG-48" value="&lt;b&gt;Если не оплатил в течение 2 дней - возврат в корзину&amp;nbsp;&lt;/b&gt;" style="shape=note;size=20;whiteSpace=wrap;html=1;align=left;" vertex="1" parent="1">
          <mxGeometry x="2520" y="585" width="190" height="85" as="geometry" />
        </mxCell>
        <mxCell id="wn-SuR4RgDLq-diN6uzG-50" value="" style="endArrow=block;html=1;rounded=0;endFill=1;" edge="1" parent="1" source="wn-SuR4RgDLq-diN6uzG-1" target="wn-SuR4RgDLq-diN6uzG-51">
          <mxGeometry relative="1" as="geometry">
            <mxPoint x="2390" y="690" as="sourcePoint" />
            <mxPoint x="2423" y="705" as="targetPoint" />
          </mxGeometry>
        </mxCell>
        <mxCell id="wn-SuR4RgDLq-diN6uzG-51" value="&lt;b&gt;Статус заказа (ожидает оплаты)&lt;/b&gt;" style="ellipse;whiteSpace=wrap;html=1;" vertex="1" parent="1">
          <mxGeometry x="2370" y="520" width="140" height="70" as="geometry" />
        </mxCell>
        <mxCell id="wn-SuR4RgDLq-diN6uzG-53" value="&lt;b&gt;Статусы банковской операции:&lt;br&gt;1) Успех&lt;br&gt;2) Отмена&lt;/b&gt;" style="shape=note;size=20;whiteSpace=wrap;html=1;align=left;" vertex="1" parent="1">
          <mxGeometry x="2260" y="400" width="160" height="80" as="geometry" />
        </mxCell>
        <mxCell id="wn-SuR4RgDLq-diN6uzG-54" value="&lt;b&gt;Товар вернуть в корзину пользователю, пользователю уведомление&lt;/b&gt;" style="shape=note;size=20;whiteSpace=wrap;html=1;align=left;" vertex="1" parent="1">
          <mxGeometry x="2280" y="1020" width="170" height="85" as="geometry" />
        </mxCell>
        <mxCell id="wn-SuR4RgDLq-diN6uzG-56" value="&lt;b&gt;Доступно только при статусе заказа &quot;собирается&quot;, &quot;в доставке&quot;, &quot;доставлен&quot;&lt;/b&gt;" style="shape=note;size=20;whiteSpace=wrap;html=1;align=left;" vertex="1" parent="1">
          <mxGeometry x="2010" y="690" width="160" height="70" as="geometry" />
        </mxCell>
      </root>
    </mxGraphModel>
  </diagram>
</mxfile>
